<?xml version="1.0" standalone="no"?>
<!DOCTYPE svg PUBLIC "-//W3C//DTD SVG 20010904//EN"
 "http://www.w3.org/TR/2001/REC-SVG-20010904/DTD/svg10.dtd">
<svg version="1.0" xmlns="http://www.w3.org/2000/svg"
 width="2161.000000pt" height="2161.000000pt" viewBox="0 0 2161.000000 2161.000000"
 preserveAspectRatio="xMidYMid meet">
<metadata>
Created by potrace 1.11, written by Peter Selinger 2001-2013
</metadata>
<g transform="translate(0.000000,2161.000000) scale(0.100000,-0.100000)"
fill="#000000" stroke="none">
<path d="M7805 19870 c-258 -17 -590 -88 -860 -185 -1008 -362 -1785 -1219
-2045 -2256 -22 -88 -53 -231 -67 -317 l-27 -157 -3 -3922 -3 -3923 405 0 405
0 2 3903 3 3902 27 136 c73 360 188 645 375 927 398 600 1039 993 1759 1077
194 23 4864 23 5058 0 946 -111 1735 -747 2045 -1648 44 -128 82 -285 107
-437 15 -92 18 -211 21 -935 2 -456 3 -861 1 -899 l-3 -69 -47 71 c-177 266
-516 617 -811 840 -454 342 -1074 628 -1567 722 -276 52 -524 68 -810 51
-1417 -82 -2669 -921 -3280 -2196 -159 -332 -270 -696 -332 -1084 -31 -193
-31 -202 -32 -561 -1 -352 0 -371 28 -550 159 -1040 693 -1936 1516 -2549 618
-459 1386 -730 2150 -757 210 -7 560 14 772 47 566 87 1163 337 1651 690 423
307 821 753 1066 1194 l57 103 29 -77 c97 -264 271 -602 440 -856 361 -543
792 -894 1290 -1050 135 -42 530 -133 539 -124 7 7 166 742 166 766 0 19 -12
24 -97 43 -320 71 -401 92 -484 129 -573 253 -1075 1052 -1314 2091 -59 259
-80 386 -124 785 -44 388 -101 666 -207 1001 -24 77 -44 144 -44 148 0 4 56 4
124 0 l124 -7 7 534 c4 294 5 962 2 1484 l-4 950 -26 170 c-115 745 -433 1369
-958 1880 -497 484 -1088 776 -1804 893 l-160 26 -2470 2 c-1358 0 -2524 -2
-2590 -6z m4505 -3944 c504 -85 971 -297 1401 -636 143 -113 407 -381 511
-520 334 -443 599 -1051 723 -1656 20 -97 48 -286 65 -444 35 -314 67 -526
116 -755 33 -153 97 -406 114 -451 8 -20 5 -20 -68 11 -42 18 -111 49 -154 68
-42 20 -79 33 -82 30 -3 -4 -6 -2 -6 4 0 6 -12 16 -27 21 -16 6 -54 22 -85 36
l-57 25 -70 -132 c-135 -256 -320 -517 -506 -715 -167 -178 -436 -392 -660
-525 -505 -299 -1072 -443 -1675 -424 -639 20 -1279 259 -1790 667 -138 110
-374 349 -477 480 -510 659 -736 1459 -637 2260 108 875 597 1668 1329 2157
416 279 882 449 1395 509 151 17 510 12 640 -10z"/>
<path d="M3680 5550 l0 -240 120 0 120 0 -2 238 -3 237 -117 3 -118 3 0 -241z"/>
<path d="M2495 4834 c-247 -55 -467 -236 -561 -463 l-23 -56 -1 248 0 247
-110 0 -110 0 0 -1170 0 -1170 110 0 110 0 0 618 c0 339 5 673 10 742 13 164
40 272 102 399 43 89 62 116 136 191 71 71 103 95 172 128 112 55 185 73 300
73 98 1 164 -11 237 -42 l42 -18 52 96 52 96 -24 18 c-13 10 -60 30 -104 45
-101 34 -279 43 -390 18z"/>
<path d="M5618 4839 c-137 -20 -288 -77 -395 -150 -110 -75 -237 -218 -311
-350 -46 -82 -101 -230 -129 -349 -31 -132 -43 -427 -23 -573 86 -640 527
-1026 1113 -976 303 26 561 185 709 437 46 78 95 189 87 196 -15 13 -203 75
-209 69 -3 -4 -15 -28 -25 -53 -67 -158 -189 -291 -326 -359 -123 -60 -192
-75 -339 -75 -223 0 -364 57 -516 209 -80 80 -96 103 -147 205 -31 63 -66 149
-77 190 -86 323 -59 675 74 945 127 258 320 398 586 424 237 24 450 -55 612
-227 64 -68 152 -202 164 -249 4 -13 9 -23 12 -23 3 0 54 19 113 42 l107 41
-18 42 c-76 177 -229 354 -394 456 -183 112 -439 162 -668 128z"/>
<path d="M8145 4839 c-215 -28 -395 -116 -546 -268 -92 -92 -146 -171 -210
-305 -91 -192 -129 -380 -129 -643 0 -246 38 -434 126 -618 102 -214 253 -367
459 -466 171 -83 365 -114 599 -98 205 14 374 69 528 172 91 61 233 184 233
202 0 13 -140 145 -153 145 -4 0 -24 -16 -43 -36 -56 -59 -185 -151 -262 -188
-199 -96 -496 -111 -715 -37 -112 39 -183 83 -267 166 -150 148 -238 365 -261
643 l-7 82 886 0 885 0 8 77 c4 43 4 130 0 193 -27 486 -299 852 -707 953
-134 34 -288 43 -424 26z m326 -214 c151 -30 303 -120 394 -233 62 -77 130
-218 154 -321 11 -47 23 -136 27 -198 l7 -113 -777 0 c-696 0 -776 2 -776 16
0 82 49 285 94 393 153 363 483 534 877 456z"/>
<path d="M19195 4839 c-311 -42 -535 -202 -608 -434 -29 -95 -29 -261 1 -352
56 -174 195 -291 442 -371 52 -17 188 -54 302 -81 344 -83 455 -130 551 -229
71 -75 98 -146 98 -257 1 -220 -111 -368 -335 -442 -74 -25 -94 -27 -246 -28
-143 0 -175 3 -244 23 -213 62 -373 191 -467 377 -22 43 -41 81 -43 82 -5 5
-181 -76 -184 -85 -1 -5 8 -34 21 -65 116 -262 384 -462 697 -521 95 -18 322
-21 420 -5 177 28 343 112 448 224 109 116 161 261 162 446 0 234 -92 399
-287 513 -106 63 -206 97 -513 176 -363 93 -452 131 -540 227 -58 63 -82 127
-82 221 0 186 135 326 362 377 106 23 273 22 373 -4 162 -42 312 -152 403
-296 l47 -74 88 47 c49 26 89 52 89 58 0 23 -99 158 -165 225 -115 116 -248
191 -407 229 -98 24 -283 33 -383 19z"/>
<path d="M10630 4821 c-175 -38 -323 -114 -457 -235 -62 -57 -183 -199 -183
-216 0 -8 162 -130 173 -130 2 0 30 34 63 76 180 236 435 341 757 313 304 -26
482 -166 556 -439 22 -81 41 -227 41 -327 l0 -62 -492 -4 c-463 -4 -499 -5
-592 -26 -212 -47 -328 -102 -432 -206 -120 -118 -164 -233 -164 -431 0 -360
215 -610 585 -679 125 -24 366 -17 480 14 230 62 447 228 576 441 l36 59 6
-112 c4 -62 7 -174 7 -249 l0 -138 100 0 101 0 -3 828 -3 827 -26 95 c-94 342
-306 539 -649 604 -116 22 -368 20 -480 -3z m950 -1358 l0 -168 -34 -78 c-59
-134 -118 -227 -199 -314 -179 -189 -394 -273 -662 -260 -130 7 -204 25 -301
72 -180 88 -278 285 -245 488 35 215 184 342 465 397 97 20 261 27 629 29
l347 1 0 -167z"/>
<path d="M13690 4826 c-287 -64 -525 -249 -655 -511 l-45 -89 0 292 0 292
-115 0 -115 0 0 -1655 0 -1655 115 0 115 0 0 777 0 777 45 -89 c95 -191 242
-338 430 -429 129 -63 198 -83 326 -95 411 -39 756 157 943 536 131 264 175
610 120 943 -81 485 -366 822 -766 904 -92 19 -316 20 -398 2z m264 -206 c294
-43 517 -239 622 -548 46 -134 66 -268 65 -442 -1 -394 -137 -695 -389 -861
-125 -82 -302 -127 -462 -115 -310 21 -557 189 -695 469 -185 378 -145 873 96
1191 173 227 472 348 763 306z"/>
<path d="M16670 4826 c-287 -64 -525 -249 -655 -511 l-45 -89 0 292 0 292
-115 0 -115 0 0 -1655 0 -1655 115 0 115 0 0 777 0 777 45 -89 c95 -191 242
-338 430 -429 129 -63 198 -83 326 -95 411 -39 756 157 943 536 131 264 175
610 120 943 -81 485 -366 822 -766 904 -92 19 -316 20 -398 2z m264 -206 c294
-43 517 -239 622 -548 46 -134 66 -268 65 -442 -1 -394 -137 -695 -389 -861
-125 -82 -302 -127 -462 -115 -310 21 -557 189 -695 469 -185 378 -145 873 96
1191 173 227 472 348 763 306z"/>
<path d="M3690 3640 l0 -1170 110 0 110 0 0 1170 0 1170 -110 0 -110 0 0
-1170z"/>
</g>
</svg>
