<?xml version="1.0" encoding="utf-8"?>
<!-- Generator: Adobe Illustrator 18.0.0, SVG Export Plug-In . SVG Version: 6.00 Build 0)  -->
<!DOCTYPE svg PUBLIC "-//W3C//DTD SVG 1.1//EN" "http://www.w3.org/Graphics/SVG/1.1/DTD/svg11.dtd">
<svg version="1.1" id="Layer_1" xmlns="http://www.w3.org/2000/svg" xmlns:xlink="http://www.w3.org/1999/xlink" x="0px" y="0px"
	 viewBox="0 0 500 500" enable-background="new 0 0 500 500" xml:space="preserve">
<g>
	<path fill="#FEBACD" d="M400,167.1C400,167.1,400,166.4,400,167.1c0-0.6,0-0.6,0-1.3c0-0.6-0.6-1.3-0.6-1.9l0,0l0,0
		c-0.6-0.6-0.6-1.3-1.3-1.9c0,0,0,0-0.6-0.6c0,0,0,0-0.6,0L253.1,77.9c0,0,0,0-0.6,0h-0.6c-1.3-0.6-3.1-0.6-4.4,0h-0.6h-0.6
		l-143.1,83.5c0,0,0,0-0.6,0c0,0,0,0-0.6,0.6c-1.3,1.3-1.9,2.5-1.9,3.8v0.6v0.6v166.3v0.6v0.6c0,0.6,0.6,1.3,0.6,1.9l0,0l0,0
		c0,0.6,0.6,0.6,1.3,1.3l0.6,0.6c0,0,0,0,0.6,0.6l0,0l0,0l143.7,82.9c0,0,0,0,0.6,0h0.6c0.6,0,1.3,0.6,1.9,0.6c0.6,0,1.3,0,1.9-0.6
		h0.6c0,0,0,0,0.6,0l143.7-82.9l0,0l0,0c0,0,0,0,0.6-0.6l0.6-0.6c0.6-0.6,1.3-1.9,1.9-3.1V334v-0.6V167.1z M112.5,177.7l59,33.9
		v76.6l-59,33.9V177.7z M184.1,219.2l59.6,34.5v69l-59.6-34.5V219.2z M250,174l59.6,34.5L250,243l-59.6-34.5L250,174z M256.3,253.7
		l59.6-34.5v69l-59.6,34.5V253.7z M322.2,201l-65.9-38.3V94.2l124.9,72.8L322.2,201z M243.7,162.7L177.8,201l-59-33.9l124.9-72.8
		V162.7z M177.8,299.5l65.9,37.7v68.4l-124.9-72.2L177.8,299.5z M256.3,337.2l65.9-37.7l59,33.9l-124.9,72.2V337.2z M328.5,288.2
		v-76.6l59-33.9v144.4L328.5,288.2z"/>
	<path fill="#FEBACD" d="M308.4,355.4l-32.6-18.8c-3.1-1.9-6.9-0.6-8.8,2.5s-0.6,6.9,2.5,8.8l32.6,18.8c1.3,0.6,1.9,0.6,3.1,0.6
		c1.9,0,4.4-1.3,5.6-3.1C312.1,361,311.5,357.3,308.4,355.4z"/>
	<path fill="#FEBACD" d="M292.1,368.6l-20.7-11.9c-3.1-1.9-6.9-0.6-8.8,2.5s-0.6,6.9,2.5,8.8l20.7,11.9c1.3,0.6,1.9,0.6,3.1,0.6
		c1.9,0,4.4-1.3,5.6-3.1C295.8,374.2,295.2,370.4,292.1,368.6z"/>
</g>
</svg>
